<mxfile host="app.diagrams.net" agent="Mozilla/5.0 (X11; Ubuntu; Linux x86_64; rv:130.0) Gecko/20100101 Firefox/130.0" version="24.7.14">
  <diagram name="Страница — 1" id="meCVbivMKDqdFskkw7RH">
    <mxGraphModel dx="456" dy="263" grid="1" gridSize="10" guides="1" tooltips="1" connect="1" arrows="1" fold="1" page="1" pageScale="1" pageWidth="827" pageHeight="1169" math="0" shadow="0">
      <root>
        <mxCell id="0" />
        <mxCell id="1" parent="0" />
        <mxCell id="AhXGMmnZ5p0-kY5Swr6e-7" value="&lt;strong&gt;Animal&lt;/strong&gt;" style="swimlane;fontStyle=0;childLayout=stackLayout;horizontal=1;startSize=26;fillColor=none;horizontalStack=0;resizeParent=1;resizeParentMax=0;resizeLast=0;collapsible=1;marginBottom=0;whiteSpace=wrap;html=1;" parent="1" vertex="1">
          <mxGeometry x="334" y="230" width="160" height="150" as="geometry" />
        </mxCell>
        <mxCell id="AhXGMmnZ5p0-kY5Swr6e-8" value="+ species: string" style="text;strokeColor=none;fillColor=none;align=left;verticalAlign=top;spacingLeft=4;spacingRight=4;overflow=hidden;rotatable=0;points=[[0,0.5],[1,0.5]];portConstraint=eastwest;whiteSpace=wrap;html=1;" parent="AhXGMmnZ5p0-kY5Swr6e-7" vertex="1">
          <mxGeometry y="26" width="160" height="24" as="geometry" />
        </mxCell>
        <mxCell id="AhXGMmnZ5p0-kY5Swr6e-9" value="+ name: string" style="text;strokeColor=none;fillColor=none;align=left;verticalAlign=top;spacingLeft=4;spacingRight=4;overflow=hidden;rotatable=0;points=[[0,0.5],[1,0.5]];portConstraint=eastwest;whiteSpace=wrap;html=1;" parent="AhXGMmnZ5p0-kY5Swr6e-7" vertex="1">
          <mxGeometry y="50" width="160" height="18" as="geometry" />
        </mxCell>
        <mxCell id="AhXGMmnZ5p0-kY5Swr6e-10" value="+ gender: string" style="text;strokeColor=none;fillColor=none;align=left;verticalAlign=top;spacingLeft=4;spacingRight=4;overflow=hidden;rotatable=0;points=[[0,0.5],[1,0.5]];portConstraint=eastwest;whiteSpace=wrap;html=1;" parent="AhXGMmnZ5p0-kY5Swr6e-7" vertex="1">
          <mxGeometry y="68" width="160" height="20" as="geometry" />
        </mxCell>
        <mxCell id="ffog2mB99-dQbUR55yxd-4" style="edgeStyle=orthogonalEdgeStyle;rounded=0;orthogonalLoop=1;jettySize=auto;html=1;exitX=1;exitY=0.5;exitDx=0;exitDy=0;" edge="1" parent="AhXGMmnZ5p0-kY5Swr6e-7" source="AhXGMmnZ5p0-kY5Swr6e-9" target="AhXGMmnZ5p0-kY5Swr6e-9">
          <mxGeometry relative="1" as="geometry" />
        </mxCell>
        <mxCell id="ffog2mB99-dQbUR55yxd-12" value="- age: int" style="text;strokeColor=none;fillColor=none;align=left;verticalAlign=top;spacingLeft=4;spacingRight=4;overflow=hidden;rotatable=0;points=[[0,0.5],[1,0.5]];portConstraint=eastwest;whiteSpace=wrap;html=1;" vertex="1" parent="AhXGMmnZ5p0-kY5Swr6e-7">
          <mxGeometry y="88" width="160" height="32" as="geometry" />
        </mxCell>
        <mxCell id="ffog2mB99-dQbUR55yxd-13" value="" style="endArrow=none;html=1;rounded=0;exitX=0.004;exitY=1.01;exitDx=0;exitDy=0;entryX=1.006;entryY=0.969;entryDx=0;entryDy=0;entryPerimeter=0;exitPerimeter=0;" edge="1" parent="AhXGMmnZ5p0-kY5Swr6e-7" source="ffog2mB99-dQbUR55yxd-12" target="ffog2mB99-dQbUR55yxd-12">
          <mxGeometry width="50" height="50" relative="1" as="geometry">
            <mxPoint x="116" y="110" as="sourcePoint" />
            <mxPoint x="166" y="60" as="targetPoint" />
            <Array as="points">
              <mxPoint x="76" y="120" />
            </Array>
          </mxGeometry>
        </mxCell>
        <mxCell id="ffog2mB99-dQbUR55yxd-14" value="+ displayInfo(): void" style="text;strokeColor=none;fillColor=none;align=left;verticalAlign=top;spacingLeft=4;spacingRight=4;overflow=hidden;rotatable=0;points=[[0,0.5],[1,0.5]];portConstraint=eastwest;whiteSpace=wrap;html=1;" vertex="1" parent="AhXGMmnZ5p0-kY5Swr6e-7">
          <mxGeometry y="120" width="160" height="30" as="geometry" />
        </mxCell>
      </root>
    </mxGraphModel>
  </diagram>
</mxfile>
